<?xml version="1.0" encoding="utf-8"?>
<!-- Generator: Adobe Illustrator 17.0.0, SVG Export Plug-In . SVG Version: 6.00 Build 0)  -->
<!DOCTYPE svg PUBLIC "-//W3C//DTD SVG 1.1//EN" "http://www.w3.org/Graphics/SVG/1.1/DTD/svg11.dtd">
<svg version="1.1" id="Layer_1" xmlns="http://www.w3.org/2000/svg" xmlns:xlink="http://www.w3.org/1999/xlink" x="0px" y="0px"
	 width="512.79px" height="71.428px" viewBox="0.345 5.657 512.79 71.428" enable-background="new 0.345 5.657 512.79 71.428"
	 xml:space="preserve">
<g>
	<path fill="#0D5166" d="M56.803,19.001H35.709v56.71H21.543v-56.71H0.345V7.031h56.458V19.001z"/>
	<path fill="#0D5166" d="M84.824,7.031h42.912v11.97H98.99v15.993h26.161v11.97H98.99v16.777h29.263v11.97H84.824V7.031z"/>
	<path fill="#0D5166" d="M190.706,57.266c0-2.093-0.812-3.793-2.43-5.103c-1.621-1.308-3.655-2.502-6.102-3.581
		c-2.447-1.079-5.102-2.19-7.962-3.336c-2.861-1.144-5.516-2.551-7.962-4.219c-2.447-1.668-4.481-3.744-6.101-6.23
		c-1.62-2.485-2.43-5.657-2.43-9.517c0-3.336,0.585-6.23,1.758-8.683c1.171-2.453,2.844-4.497,5.015-6.132
		c2.172-1.634,4.739-2.845,7.704-3.63c2.963-0.785,6.271-1.177,9.926-1.177c4.204,0,8.169,0.344,11.892,1.03
		c3.723,0.687,6.789,1.685,9.203,2.993l-4.446,11.283c-1.518-0.916-3.792-1.75-6.825-2.502c-3.034-0.751-6.307-1.128-9.823-1.128
		c-3.309,0-5.842,0.623-7.6,1.864c-1.758,1.243-2.637,2.911-2.637,5.004c0,1.962,0.81,3.598,2.43,4.905
		c1.619,1.31,3.653,2.519,6.101,3.63c2.446,1.113,5.101,2.257,7.962,3.434c2.86,1.177,5.515,2.6,7.962,4.268
		c2.446,1.668,4.48,3.728,6.102,6.181c1.618,2.453,2.43,5.511,2.43,9.174c0,3.664-0.639,6.818-1.913,9.468
		c-1.276,2.649-3.068,4.856-5.377,6.623c-2.311,1.766-5.103,3.075-8.376,3.924c-3.274,0.85-6.876,1.276-10.805,1.276
		c-5.171,0-9.72-0.459-13.649-1.374s-6.824-1.83-8.686-2.747l4.55-11.479c0.758,0.393,1.74,0.818,2.946,1.275
		c1.206,0.458,2.567,0.883,4.085,1.275c1.516,0.393,3.118,0.721,4.808,0.981c1.688,0.262,3.429,0.393,5.222,0.393
		c4.204,0,7.428-0.67,9.669-2.012C189.585,62.058,190.706,60.013,190.706,57.266z"/>
	<path fill="#0D5166" d="M283.974,72.899c-2.207,1.493-5.016,2.563-8.428,3.212s-6.911,0.974-10.495,0.974
		c-4.343,0-8.463-0.638-12.356-1.914c-3.896-1.275-7.325-3.336-10.288-6.181c-2.965-2.846-5.325-6.54-7.083-11.087
		c-1.758-4.546-2.637-10.057-2.637-16.532c0-6.736,0.981-12.378,2.946-16.925c1.965-4.545,4.515-8.208,7.652-10.989
		c3.136-2.779,6.634-4.774,10.495-5.985c3.859-1.21,7.72-1.815,11.581-1.815c4.136,0,7.634,0.262,10.495,0.785
		c2.859,0.524,5.222,1.145,7.083,1.864l-2.792,11.381c-1.587-0.719-3.464-1.242-5.636-1.57c-2.171-0.326-4.808-0.49-7.91-0.49
		c-5.723,0-10.323,1.935-13.804,5.801c-3.481,3.868-5.222,9.865-5.222,17.992c0,3.54,0.413,6.769,1.24,9.685
		c0.827,2.917,2.085,5.408,3.774,7.472c1.688,2.065,3.79,3.672,6.308,4.818c2.516,1.146,5.429,1.72,8.737,1.72
		c3.103,0,5.721-0.294,7.858-0.883c2.136-0.589,3.997-1.34,5.584-2.257L283.974,72.899z"/>
</g>
<g>
	<path fill="#0D5166" d="M356.553,17.825v5.135h-22.36v15.47h18.103v4.94h-18.103v15.893h22.36v5.135h-28.697V17.825H356.553z"/>
	<path fill="#0D5166" d="M360.55,31.474h4.745c0.455,0,0.834,0.12,1.138,0.357c0.303,0.239,0.52,0.521,0.649,0.846l8.353,21.189
		c0.304,0.78,0.542,1.561,0.715,2.34c0.174,0.78,0.336,1.55,0.488,2.308c0.173-0.758,0.357-1.527,0.552-2.308
		c0.195-0.779,0.444-1.56,0.748-2.34l8.45-21.189c0.13-0.347,0.341-0.634,0.634-0.861c0.292-0.228,0.654-0.342,1.088-0.342h4.518
		l-13.422,32.923h-5.232L360.55,31.474z"/>
	<path fill="#0D5166" d="M411.021,30.955c1.972,0,3.791,0.33,5.46,0.991c1.668,0.661,3.109,1.614,4.322,2.86
		c1.214,1.246,2.162,2.784,2.844,4.614c0.683,1.831,1.024,3.917,1.024,6.257c0,0.91-0.098,1.517-0.293,1.819
		c-0.194,0.304-0.563,0.455-1.104,0.455h-21.905c0.043,2.08,0.325,3.89,0.845,5.428c0.521,1.539,1.235,2.822,2.146,3.852
		s1.993,1.799,3.25,2.308c1.256,0.509,2.665,0.764,4.225,0.764c1.451,0,2.703-0.168,3.754-0.504s1.955-0.699,2.714-1.089
		c0.758-0.39,1.392-0.753,1.901-1.089c0.509-0.336,0.947-0.504,1.316-0.504c0.476,0,0.845,0.185,1.104,0.553l1.625,2.112
		c-0.715,0.867-1.571,1.62-2.567,2.259c-0.997,0.64-2.063,1.165-3.201,1.576c-1.138,0.412-2.313,0.721-3.526,0.927
		c-1.214,0.205-2.416,0.309-3.607,0.309c-2.275,0-4.371-0.385-6.289-1.154c-1.917-0.769-3.575-1.896-4.973-3.38
		c-1.397-1.483-2.485-3.319-3.266-5.509c-0.78-2.188-1.17-4.701-1.17-7.54c0-2.296,0.352-4.44,1.056-6.435
		c0.704-1.993,1.717-3.722,3.039-5.184c1.321-1.463,2.936-2.61,4.843-3.445C406.493,31.372,408.638,30.955,411.021,30.955z
		 M411.151,35.213c-2.795,0-4.994,0.807-6.598,2.421s-2.6,3.852-2.989,6.711h17.907c0-1.343-0.185-2.572-0.553-3.688
		c-0.368-1.115-0.91-2.08-1.625-2.893s-1.587-1.44-2.616-1.885S412.472,35.213,411.151,35.213z"/>
	<path fill="#0D5166" d="M432.049,64.397V31.474h3.445c0.822,0,1.343,0.401,1.56,1.203l0.455,3.575
		c1.43-1.582,3.027-2.86,4.794-3.836c1.766-0.975,3.808-1.462,6.126-1.462c1.798,0,3.385,0.298,4.762,0.894
		c1.375,0.597,2.523,1.441,3.444,2.535c0.921,1.095,1.619,2.41,2.097,3.948c0.477,1.539,0.715,3.24,0.715,5.103v20.963h-5.785
		V43.434c0-2.491-0.568-4.425-1.706-5.801s-2.876-2.063-5.217-2.063c-1.711,0-3.31,0.411-4.793,1.234
		c-1.484,0.824-2.855,1.939-4.111,3.348v24.245H432.049z"/>
	<path fill="#0D5166" d="M478.166,64.917c-2.601,0-4.599-0.726-5.996-2.177s-2.097-3.543-2.097-6.272v-20.15h-3.965
		c-0.347,0-0.64-0.103-0.878-0.309s-0.357-0.525-0.357-0.959v-2.308l5.396-0.683l1.332-10.172c0.043-0.325,0.185-0.59,0.423-0.797
		c0.238-0.205,0.541-0.309,0.91-0.309h2.925v11.343h9.425v4.192h-9.425v19.76c0,1.387,0.336,2.416,1.008,3.088
		c0.671,0.672,1.538,1.008,2.6,1.008c0.606,0,1.132-0.082,1.576-0.244s0.829-0.341,1.154-0.536c0.324-0.195,0.601-0.374,0.828-0.536
		c0.228-0.163,0.428-0.244,0.602-0.244c0.303,0,0.573,0.185,0.813,0.553l1.689,2.763c-0.996,0.932-2.199,1.663-3.607,2.193
		C481.112,64.652,479.661,64.917,478.166,64.917z"/>
	<path fill="#0D5166" d="M511.282,36.902c-0.26,0.477-0.661,0.715-1.202,0.715c-0.325,0-0.693-0.118-1.105-0.357
		c-0.411-0.238-0.915-0.504-1.511-0.796c-0.597-0.293-1.306-0.563-2.129-0.813s-1.799-0.374-2.925-0.374
		c-0.976,0-1.853,0.125-2.633,0.374s-1.446,0.591-1.999,1.023c-0.552,0.434-0.975,0.938-1.267,1.512
		c-0.293,0.574-0.439,1.197-0.439,1.868c0,0.846,0.244,1.55,0.731,2.112c0.487,0.564,1.132,1.052,1.934,1.463
		c0.802,0.412,1.712,0.775,2.73,1.089c1.018,0.314,2.063,0.65,3.136,1.008s2.118,0.753,3.137,1.186
		c1.018,0.434,1.928,0.976,2.729,1.625c0.802,0.65,1.446,1.446,1.934,2.389c0.488,0.943,0.731,2.075,0.731,3.396
		c0,1.517-0.271,2.92-0.813,4.209s-1.344,2.405-2.404,3.348c-1.063,0.942-2.362,1.685-3.9,2.226
		c-1.539,0.542-3.315,0.813-5.33,0.813c-2.297,0-4.377-0.373-6.24-1.121c-1.863-0.747-3.444-1.706-4.745-2.876l1.365-2.21
		c0.173-0.281,0.379-0.498,0.617-0.65c0.238-0.151,0.553-0.228,0.943-0.228c0.39,0,0.801,0.152,1.234,0.455
		c0.434,0.304,0.959,0.64,1.576,1.008c0.618,0.369,1.365,0.704,2.243,1.008c0.877,0.304,1.977,0.455,3.299,0.455
		c1.126,0,2.112-0.146,2.957-0.439c0.845-0.292,1.549-0.688,2.112-1.186s0.98-1.073,1.251-1.723c0.271-0.65,0.406-1.344,0.406-2.08
		c0-0.91-0.243-1.663-0.73-2.259c-0.488-0.596-1.133-1.105-1.934-1.527c-0.803-0.423-1.718-0.791-2.747-1.105
		c-1.029-0.313-2.08-0.645-3.152-0.991c-1.072-0.346-2.123-0.742-3.152-1.187c-1.029-0.443-1.945-1.001-2.746-1.673
		c-0.802-0.672-1.446-1.501-1.934-2.486c-0.487-0.986-0.731-2.183-0.731-3.592c0-1.256,0.26-2.464,0.78-3.624
		c0.52-1.158,1.277-2.177,2.274-3.055c0.996-0.877,2.221-1.576,3.673-2.096c1.451-0.521,3.108-0.78,4.973-0.78
		c2.166,0,4.111,0.341,5.833,1.023c1.723,0.683,3.212,1.62,4.469,2.812L511.282,36.902z"/>
</g>
</svg>
