<?xml version="1.0" encoding="utf-8"?>
<!-- Generator: Adobe Illustrator 17.0.0, SVG Export Plug-In . SVG Version: 6.00 Build 0)  -->
<!DOCTYPE svg PUBLIC "-//W3C//DTD SVG 1.1//EN" "http://www.w3.org/Graphics/SVG/1.1/DTD/svg11.dtd">
<svg version="1.1" id="Layer_1" xmlns="http://www.w3.org/2000/svg" xmlns:xlink="http://www.w3.org/1999/xlink" x="0px" y="0px"
	 width="284.4px" height="73.44px" viewBox="0 0 284.4 73.44" enable-background="new 0 0 284.4 73.44" xml:space="preserve">
<path fill="#0D5166" d="M56.803,13.678H35.709v56.71H21.543v-56.71H0.345V1.708h56.458V13.678z"/>
<path fill="#0D5166" d="M84.824,1.708h42.912v11.97H98.99v15.993h26.161v11.97H98.99v16.777h29.263v11.97H84.824V1.708z"/>
<path fill="#0D5166" d="M190.706,51.943c0-2.093-0.812-3.793-2.43-5.103c-1.621-1.308-3.655-2.502-6.102-3.581
	c-2.447-1.079-5.102-2.19-7.962-3.336c-2.861-1.144-5.516-2.551-7.962-4.219c-2.447-1.668-4.481-3.744-6.101-6.23
	c-1.62-2.485-2.43-5.657-2.43-9.517c0-3.336,0.585-6.23,1.758-8.683c1.171-2.453,2.844-4.497,5.015-6.132
	c2.172-1.634,4.739-2.845,7.704-3.63c2.963-0.785,6.271-1.177,9.926-1.177c4.204,0,8.169,0.344,11.892,1.03
	c3.723,0.687,6.789,1.685,9.203,2.993l-4.446,11.283c-1.518-0.916-3.792-1.75-6.825-2.502c-3.034-0.751-6.307-1.128-9.823-1.128
	c-3.309,0-5.842,0.623-7.6,1.864c-1.758,1.243-2.637,2.911-2.637,5.004c0,1.962,0.81,3.598,2.43,4.905
	c1.619,1.31,3.653,2.519,6.101,3.63c2.446,1.113,5.101,2.257,7.962,3.434c2.86,1.177,5.515,2.6,7.962,4.268
	c2.446,1.668,4.48,3.728,6.102,6.181c1.618,2.453,2.43,5.511,2.43,9.174c0,3.664-0.639,6.818-1.913,9.468
	c-1.276,2.649-3.068,4.856-5.377,6.623c-2.311,1.766-5.103,3.075-8.376,3.924c-3.274,0.85-6.876,1.276-10.805,1.276
	c-5.171,0-9.72-0.459-13.649-1.374s-6.824-1.83-8.686-2.747l4.55-11.479c0.758,0.393,1.74,0.818,2.946,1.275
	c1.206,0.458,2.567,0.883,4.085,1.275c1.516,0.393,3.118,0.721,4.808,0.981c1.688,0.262,3.429,0.393,5.222,0.393
	c4.204,0,7.428-0.67,9.669-2.012C189.585,56.735,190.706,54.69,190.706,51.943z"/>
<path fill="#0D5166" d="M283.974,67.576c-2.207,1.493-5.016,2.563-8.428,3.212s-6.911,0.974-10.495,0.974
	c-4.343,0-8.463-0.638-12.356-1.914c-3.896-1.275-7.325-3.336-10.288-6.181c-2.965-2.846-5.325-6.54-7.083-11.087
	c-1.758-4.546-2.637-10.057-2.637-16.532c0-6.736,0.981-12.378,2.946-16.925c1.965-4.545,4.515-8.208,7.652-10.989
	c3.136-2.779,6.634-4.774,10.495-5.985c3.859-1.21,7.72-1.815,11.581-1.815c4.136,0,7.634,0.262,10.495,0.785
	c2.859,0.524,5.222,1.145,7.083,1.864l-2.792,11.381c-1.587-0.719-3.464-1.242-5.636-1.57c-2.171-0.326-4.808-0.49-7.91-0.49
	c-5.723,0-10.323,1.935-13.804,5.801c-3.481,3.868-5.222,9.865-5.222,17.992c0,3.54,0.413,6.769,1.24,9.685
	c0.827,2.917,2.085,5.408,3.774,7.472c1.688,2.065,3.79,3.672,6.308,4.818c2.516,1.146,5.429,1.72,8.737,1.72
	c3.103,0,5.721-0.294,7.858-0.883c2.136-0.589,3.997-1.34,5.584-2.257L283.974,67.576z"/>
</svg>
