<svg width="1000" height="1000" xmlns="http://www.w3.org/2000/svg">
 <style type="text/css">.st0{fill:#DE2F14;}
	.st1{fill:#FF3617;}
	.st2{fill:#C92B12;}
	.st3{fill:#A66200;}
	.st4{fill:#DBB79F;}
	.st5{fill:#474747;}
	.st6{fill:#816786;}
	.st7{fill:#303030;}</style>

 <g>
  <title>background</title>
  <rect fill="none" id="canvas_background" height="402" width="582" y="-1" x="-1"/>
 </g>
 <g>
  <title>Layer 1</title>
  <g id="svg_1">
   <path id="svg_2" d="m858.741,341.683076c1.307,0.553 1.584,2.237 0.578,3.192c-2.463,2.388 -6.963,6.083 -12.543,7.767c-1.558,0.478 -1.936,2.489 -0.628,3.469c3.218,2.388 8.195,5.857 12.669,7.868c1.785,0.804 1.483,3.393 -0.453,3.72c-3.946,0.679 -9.753,1.081 -17.797,0.251c-18.023,-1.835 -48.514,-22.095 -63.118,-43.889c-0.025,-0.05 -0.025,-0.075 -0.05,-0.126c-0.302,-0.478 -2.262,-3.896 -0.402,-5.203c0.628,-0.452 1.709,-0.654 3.469,-0.377c10.482,1.584 11.814,-3.318 11.89,-5.48c0.452,0.528 1.156,0.779 1.86,0.603c6.711,-1.76 16.992,-15.962 23.352,-26.57c1.834,15.361 14.956,43.237 41.173,54.775z" class="st0"/>
   <path id="svg_3" d="m817.568,286.885076l0,0.025c-6.36,10.608 -16.641,24.81 -23.352,26.57c-0.704,0.176 -1.408,-0.075 -1.86,-0.603l0,-0.025c-0.151,-0.151 -0.251,-0.327 -0.352,-0.528c-0.83,-1.885 -2.74,-5.656 -6.711,-10.18c-1.86,-2.137 -4.173,-4.424 -7.038,-6.787c-11.236,-9.275 -22.673,-18.827 -35.895,-16.54l18.752,-68.221c18.777,-5.48 45.925,11.085 52.913,29.561c7.189,18.953 11.739,29.234 8.873,36.649c-0.781,2.035 -2.716,5.755 -5.33,10.079z" class="st1"/>
   <path id="svg_4" d="m792.355,312.851076l0,0.025c-0.075,2.162 -1.408,7.063 -11.89,5.48c-1.76,-0.276 -2.84,-0.075 -3.469,0.377l-0.05,-0.05l7.943,-16.213l0.402,-0.327c3.972,4.525 5.882,8.295 6.711,10.18c0.102,0.201 0.203,0.377 0.353,0.528z" class="st2"/>
   <path id="svg_5" d="m758.245,202.978076l-2.866,-0.779c-2.539,-0.704 -5.203,0.779 -5.907,3.343l-50.625,183.951l-4.173,15.208c-0.704,2.564 0.779,5.203 3.343,5.907l2.866,0.779c2.539,0.704 5.203,-0.779 5.907,-3.343l2.765,-10.055l32.803,-119.173l18.752,-68.221l0.478,-1.709c0.704,-2.564 -0.779,-5.204 -3.343,-5.908z" class="st3"/>
   <path id="svg_6" d="m549.183,403.544076c-2.564,0.804 -5.178,1.533 -7.868,2.187c-31.22,7.642 -61.107,4.826 -86.169,-2.916c-25.866,-7.918 -46.603,-21.065 -58.468,-33.281c16.615,-33.759 28.832,-74.656 41.4,-100.773c1.383,-2.891 3.016,-5.957 5.932,-7.34c2.539,-1.207 5.505,-0.83 8.295,-0.478c33.683,4.399 67.919,4.575 101.653,0.528c0.955,-0.126 1.835,0.452 2.111,1.383c9.627,32.778 30.516,66.788 53.893,95.318c0.05,0.025 0,0.025 0,0.025c-11.94,20.059 -31.898,36.549 -60.755,45.347l-0.024,0z" class="st4"/>
   <path id="svg_7" d="m553.908,838.457076c-2.111,0.025 -3.368,-0.025 -3.368,-0.201c-4.726,-107.309 -34.965,-179.451 -41.224,-193.327c40.646,1.684 80.236,1.257 100.069,-4.726c7.893,38.61 -10.206,195.765 -11.186,195.765c0,0 -3.243,0.226 -8.069,0.553c-10.582,0.679 -28.731,1.836 -36.222,1.936z" class="st5"/>
   <path id="svg_8" d="m606.62,497.129076l-1.081,2.388c-4.122,7.139 -12.769,11.337 -20.914,10.13l-0.503,0.05c-0.905,-8.446 -1.76,-16.917 -2.539,-25.262c9.226,5.127 17.546,9.3 25.037,12.694z"/>
   <path id="svg_9" d="m480.635,643.471076l-0.101,1.533c-16.49,37.68 -23.05,193.251 -24.131,193.251l-6.51,0l-36.423,0l-9.25,0c-0.98,0 -14.856,-165.073 -16.54,-202.728c13.472,1.459 51.404,5.381 92.955,7.944z" class="st5"/>
   <path id="svg_10" d="m634.019,236.737076c-13.674,-25.061 -42.783,-37.177 -70.383,-44.517c-27.072,-7.214 -52.938,-16.138 -80.588,-8.597l-0.578,-0.025c-27.324,-3.569 -55.954,4.223 -77.723,21.14c-21.768,16.917 -36.398,42.758 -39.691,70.132c-4.525,37.328 11.186,75.033 5.907,112.261c-1.282,9.125 -3.821,18.048 -5.329,27.097c-0.452,2.614 -0.804,5.254 -1.031,7.918c-0.98,11.839 1.307,24.76 9.803,33.055c1.533,1.508 3.293,3.092 5.002,4.776c10.18,-22.522 23.83,-42.456 42.959,-53.918l0.151,0.05c0.251,-0.779 0.93,-1.332 1.76,-1.383l30.868,-1.91c-25.866,-7.918 -46.604,-21.065 -58.468,-33.281c16.615,-33.759 28.832,-74.656 41.4,-100.773c1.383,-2.891 3.016,-5.957 5.932,-7.34c2.539,-1.207 5.505,-0.83 8.295,-0.478c33.683,4.399 67.919,4.575 101.653,0.528c0.955,-0.126 1.835,0.452 2.111,1.382c9.627,32.778 30.516,66.788 53.893,95.318c0.05,0.025 0,0.025 0,0.025c-11.94,20.059 -31.899,36.549 -60.755,45.347l27.324,1.181c0.654,0.025 1.232,0.377 1.558,0.905l0.578,-0.729l48.087,37.605c0.478,0.377 0.98,0.704 1.483,1.005c1.885,-19.607 3.745,-39.213 5.605,-58.82c2.463,-25.866 4.927,-51.706 7.39,-77.572c2.289,-23.854 4.249,-49.342 -7.213,-70.382z"/>
   <path id="svg_11" d="m709.555,397.989076l-2.765,10.055c-0.704,2.564 -3.368,4.047 -5.907,3.343l-2.866,-0.779c-2.564,-0.704 -4.047,-3.343 -3.343,-5.907l4.173,-15.208c-4.173,-0.528 -8.471,0.955 -11.437,4.248l-42.732,47.232c-4.248,4.675 -11.136,5.656 -16.439,2.539c-0.503,-0.302 -1.005,-0.628 -1.483,-1.005l-48.087,-37.605l-0.578,0.729c-0.327,-0.528 -0.905,-0.88 -1.558,-0.905l-27.324,-1.181l-0.025,0c-2.564,0.804 -5.178,1.533 -7.868,2.187c-31.22,7.642 -61.107,4.826 -86.169,-2.916l-30.868,1.91c-0.829,0.05 -1.508,0.603 -1.76,1.383l-0.151,-0.05c-19.129,11.462 -32.778,31.396 -42.959,53.918c-19.481,43.034 -26.343,95.444 -34.764,116.157c-2.916,7.214 -1.257,17.998 3.72,23.98l3.268,3.946c2.765,3.318 7.893,3.243 10.557,-0.201c9.25,-11.99 30.566,-53.466 38.786,-74.103l-18.124,104.267c-0.176,1.131 0.603,2.162 1.709,2.287c0.804,0.101 1.86,0.201 3.117,0.352c13.473,1.458 51.405,5.379 92.956,7.943c9.451,0.578 19.104,1.081 28.681,1.458c40.646,1.684 80.236,1.257 100.069,-4.726c1.936,-0.603 3.695,-1.232 5.228,-1.936c0.955,-0.427 1.382,-1.508 1.031,-2.463c-3.921,-10.482 -24.986,-67.97 -29.536,-108.943c-0.679,-6.033 -1.332,-12.166 -1.986,-18.3c-0.905,-8.446 -1.76,-16.917 -2.539,-25.262c9.225,5.128 17.545,9.301 25.036,12.694c26.142,11.789 42.28,14.127 50.852,14.177c4.801,0.025 9.25,-2.589 11.613,-6.787c11.89,-21.165 32.351,-75.36 40.47,-97.38c0.553,-1.483 0.83,-3.042 0.83,-4.575c0.001,-1.556 -0.275,-3.115 -0.828,-4.573z" class="st6"/>
   <path id="svg_12" d="m449.892,837.323076c5.932,11.714 -10.934,21.919 -29.234,21.919c-20.411,0 -31.748,-3.419 -29.485,-10.206c2.262,-6.812 22.296,-11.915 22.296,-11.915l36.423,0l0,0.202z" class="st7"/>
   <path id="svg_13" d="m612.1,847.880076c2.212,6.812 -8.924,10.231 -28.983,10.231c-17.42,0 -33.482,-9.577 -29.209,-20.788c7.491,-0.101 25.639,-1.257 36.222,-1.936l0.05,0.603c0.001,0 19.683,5.103 21.92,11.89z" class="st7"/>
  </g>
 </g>
</svg>