<?xml version="1.0" encoding="UTF-8"?>
<svg width="255px" height="180px" viewBox="0 0 255 180" version="1.1" xmlns="http://www.w3.org/2000/svg" xmlns:xlink="http://www.w3.org/1999/xlink">
    <!-- Generator: Sketch 45.2 (43514) - http://www.bohemiancoding.com/sketch -->
    <title>Group 36</title>
    <desc>Created with Sketch.</desc>
    <defs></defs>
    <g id="Page-1" stroke="none" stroke-width="1" fill="none" fill-rule="evenodd">
        <g id="Group-36" transform="translate(0.837731, 0.000000)">
            <g id="Group-34" transform="translate(24.000000, 0.000000)">
                <g id="Group-23" transform="translate(84.000000, 30.500000) scale(-1, 1) translate(-84.000000, -30.500000) translate(55.000000, 0.000000)">
                    <g id="Group-21">
                        <polygon id="Path-28" fill="#F87373" points="10.9001621 3.33867556 20.3081891 0.587336398 57.0179663 22.2849706 35.7492505 33.2583932"></polygon>
                        <polygon id="Path-28" fill="#D15D5D" points="0.573560918 13.3678516 10.6039892 2.97612996 46.556115 23.0407435 35.3597801 34.045474"></polygon>
                        <polygon id="Path-24" fill="#F7E5C6" points="0 13.4649061 0 39.5080782 35.6947747 60.0185165 35.6947747 33.8551219"></polygon>
                        <polygon id="Path-29" fill="#F7EEDF" points="57.8682892 21.1591381 35.2652302 33.8970745 35.2652302 59.692288 57.8682892 46.7358224"></polygon>
                    </g>
                </g>
                <g id="Group-23" transform="translate(63.000000, 42.500000) scale(-1, 1) translate(-63.000000, -42.500000) translate(34.000000, 12.000000)">
                    <g id="Group-21">
                        <polygon id="Path-28" fill="#F87373" points="10.9001621 3.33867556 20.3081891 0.587336398 57.0179663 22.2849706 35.7492505 33.2583932"></polygon>
                        <polygon id="Path-28" fill="#D15D5D" points="0.573560918 13.3678516 10.6039892 2.97612996 46.556115 23.0407435 35.3597801 34.045474"></polygon>
                        <polygon id="Path-24" fill="#F7E5C6" points="0 13.4649061 0 39.5080782 35.6947747 60.0185165 35.6947747 33.8551219"></polygon>
                        <polygon id="Path-29" fill="#F7EEDF" points="57.8682892 21.1591381 35.2652302 33.8970745 35.2652302 59.692288 57.8682892 46.7358224"></polygon>
                    </g>
                </g>
                <g id="Group-23" transform="translate(29.000000, 62.500000) scale(-1, 1) translate(-29.000000, -62.500000) translate(0.000000, 32.000000)">
                    <g id="Group-21">
                        <polygon id="Path-28" fill="#F87373" points="10.9001621 3.33867556 20.3081891 0.587336398 57.0179663 22.2849706 35.7492505 33.2583932"></polygon>
                        <polygon id="Path-28" fill="#D15D5D" points="0.573560918 13.3678516 10.6039892 2.97612996 46.556115 23.0407435 35.3597801 34.045474"></polygon>
                        <polygon id="Path-24" fill="#F7E5C6" points="0 13.4649061 0 39.5080782 35.6947747 60.0185165 35.6947747 33.8551219"></polygon>
                        <polygon id="Path-29" fill="#F7EEDF" points="57.8682892 21.1591381 35.2652302 33.8970745 35.2652302 59.692288 57.8682892 46.7358224"></polygon>
                    </g>
                </g>
                <g id="Group-22" transform="translate(46.000000, 66.500000) scale(-1, 1) translate(-46.000000, -66.500000) translate(29.000000, 53.000000)" fill="#75C8DC">
                    <polygon id="Path-30" points="0 0 0 7.1334242 3.67391489 9.22080601 3.67391489 2.05802054"></polygon>
                    <polygon id="Path-30" points="6.04837436 3.36020798 6.04837436 10.4936322 9.72228926 12.581014 9.72228926 5.41822851"></polygon>
                    <polygon id="Path-30" points="12.0967487 6.72041596 12.0967487 13.8538402 15.7706636 15.941222 15.7706636 8.77843649"></polygon>
                    <polygon id="Path-30" points="18.1451231 10.0806239 18.1451231 17.2140481 21.819038 19.3014299 21.819038 12.1386445"></polygon>
                    <polygon id="Path-30" points="24.1934974 13.4408319 24.1934974 20.5742561 27.8674123 22.6616379 27.8674123 15.4988524"></polygon>
                    <polygon id="Path-30" points="30.2418718 16.8010399 30.2418718 23.9344641 33.9157867 26.0218459 33.9157867 18.8590604"></polygon>
                </g>
                <g id="Group-22" transform="translate(87.000000, 42.500000) scale(-1, 1) translate(-87.000000, -42.500000) translate(70.000000, 29.000000)" fill="#75C8DC">
                    <polygon id="Path-30" points="0 0 0 7.1334242 3.67391489 9.22080601 3.67391489 2.05802054"></polygon>
                    <polygon id="Path-30" points="6.04837436 3.36020798 6.04837436 10.4936322 9.72228926 12.581014 9.72228926 5.41822851"></polygon>
                    <polygon id="Path-30" points="12.0967487 6.72041596 12.0967487 13.8538402 15.7706636 15.941222 15.7706636 8.77843649"></polygon>
                    <polygon id="Path-30" points="18.1451231 10.0806239 18.1451231 17.2140481 21.819038 19.3014299 21.819038 12.1386445"></polygon>
                    <polygon id="Path-30" points="24.1934974 13.4408319 24.1934974 20.5742561 27.8674123 22.6616379 27.8674123 15.4988524"></polygon>
                    <polygon id="Path-30" points="30.2418718 16.8010399 30.2418718 23.9344641 33.9157867 26.0218459 33.9157867 18.8590604"></polygon>
                </g>
            </g>
            <g id="Group-35" transform="translate(116.000000, 10.000000)">
                <g id="Group-23">
                    <g id="Group-21">
                        <polygon id="Path-28" fill="#D15D5D" points="10.9812271 3.36350546 20.4592222 0.59170445 58.4420119 22.4507051 36.0151196 33.5057376"></polygon>
                        <polygon id="Path-28" fill="#F87373" points="0.57782652 13.467269 10.6828517 2.99826359 46.9023553 23.2120988 35.6227526 34.298672"></polygon>
                        <polygon id="Path-24" fill="#F7EEDF" points="0 13.5650453 0 39.8019019 35.9602387 60.4648773 35.9602387 34.1069043"></polygon>
                        <polygon id="Path-29" fill="#F7E5C6" points="58.2986587 21.3164998 35.5274996 34.1491689 35.5274996 60.1362227 58.2986587 47.0833992"></polygon>
                    </g>
                </g>
                <g id="Group-23" transform="translate(35.000000, 20.000000)">
                    <g id="Group-21">
                        <polygon id="Path-28" fill="#D15D5D" points="10.9812271 3.36350546 20.4592222 0.59170445 58.4420119 22.4507051 36.0151196 33.5057376"></polygon>
                        <polygon id="Path-28" fill="#F87373" points="0.57782652 13.467269 10.6828517 2.99826359 46.9023553 23.2120988 35.6227526 34.298672"></polygon>
                        <polygon id="Path-24" fill="#F7EEDF" points="0 13.5650453 0 39.8019019 35.9602387 60.4648773 35.9602387 34.1069043"></polygon>
                        <polygon id="Path-29" fill="#F7E5C6" points="58.2986587 21.3164998 35.5274996 34.1491689 35.5274996 60.1362227 58.2986587 47.0833992"></polygon>
                    </g>
                </g>
                <g id="Group-23" transform="translate(68.500000, 39.000000)">
                    <g id="Group-21">
                        <polygon id="Path-28" fill="#D15D5D" points="10.9812271 3.36350546 20.4592222 0.59170445 57.4420119 22.4507051 36.0151196 33.5057376"></polygon>
                        <polygon id="Path-28" fill="#F87373" points="0.57782652 13.467269 10.6828517 2.99826359 46.9023553 23.2120988 35.6227526 34.298672"></polygon>
                        <polygon id="Path-24" fill="#F7EEDF" points="0 13.5650453 0 39.8019019 35.9602387 60.4648773 35.9602387 34.1069043"></polygon>
                        <polygon id="Path-29" fill="#F7E5C6" points="58.2986587 21.3164998 35.5274996 34.1491689 35.5274996 60.1362227 58.2986587 47.0833992"></polygon>
                    </g>
                </g>
                <g id="Group-22" transform="translate(60.000000, 57.000000)" fill="#75C8DC">
                    <polygon id="Path-30" points="0 0 0 7.1334242 3.67391489 9.22080601 3.67391489 2.05802054"></polygon>
                    <polygon id="Path-30" points="6.04837436 3.36020798 6.04837436 10.4936322 9.72228926 12.581014 9.72228926 5.41822851"></polygon>
                    <polygon id="Path-30" points="12.0967487 6.72041596 12.0967487 13.8538402 15.7706636 15.941222 15.7706636 8.77843649"></polygon>
                    <polygon id="Path-30" points="18.1451231 10.0806239 18.1451231 17.2140481 21.819038 19.3014299 21.819038 12.1386445"></polygon>
                    <polygon id="Path-30" points="24.1934974 13.4408319 24.1934974 20.5742561 27.8674123 22.6616379 27.8674123 15.4988524"></polygon>
                    <polygon id="Path-30" points="30.2418718 16.8010399 30.2418718 23.9344641 33.9157867 26.0218459 33.9157867 18.8590604"></polygon>
                </g>
                <g id="Group-22" transform="translate(21.000000, 34.000000)" fill="#75C8DC">
                    <polygon id="Path-30" points="0 0 0 7.1334242 3.67391489 9.22080601 3.67391489 2.05802054"></polygon>
                    <polygon id="Path-30" points="6.04837436 3.36020798 6.04837436 10.4936322 9.72228926 12.581014 9.72228926 5.41822851"></polygon>
                    <polygon id="Path-30" points="12.0967487 6.72041596 12.0967487 13.8538402 15.7706636 15.941222 15.7706636 8.77843649"></polygon>
                    <polygon id="Path-30" points="18.1451231 10.0806239 18.1451231 17.2140481 21.819038 19.3014299 21.819038 12.1386445"></polygon>
                    <polygon id="Path-30" points="24.1934974 13.4408319 24.1934974 20.5742561 27.8674123 22.6616379 27.8674123 15.4988524"></polygon>
                    <polygon id="Path-30" points="30.2418718 16.8010399 30.2418718 23.9344641 33.9157867 26.0218459 33.9157867 18.8590604"></polygon>
                </g>
            </g>
            <g id="Group-23" transform="translate(0.000000, 44.000000)">
                <g id="Group-21">
                    <polygon id="Path-28" fill="#D15D5D" points="17 5.20703125 31.6728516 0.916015625 88.9257812 34.7558594 55.7548828 51.8701172"></polygon>
                    <polygon id="Path-28" fill="#F87373" points="0.89453125 20.8486328 16.5380859 4.64160156 72.609375 35.9345703 55.1474609 53.0976562"></polygon>
                    <polygon id="Path-24" fill="#F7EEDF" points="0 21 0 61.6171875 55.6699219 93.6054687 55.6699219 52.8007812"></polygon>
                    <polygon id="Path-29" fill="#F7E5C6" points="90.2519531 33 55 52.8662109 55 93.0966797 90.2519531 72.8896484"></polygon>
                </g>
                <g id="Group-22" transform="translate(9.000000, 36.000000)" fill="#75C8DC">
                    <polygon id="Path-30" points="0 0 0 7.1334242 3.67391489 9.22080601 3.67391489 2.05802054"></polygon>
                    <polygon id="Path-30" points="6.04837436 3.36020798 6.04837436 10.4936322 9.72228926 12.581014 9.72228926 5.41822851"></polygon>
                    <polygon id="Path-30" points="12.0967487 6.72041596 12.0967487 13.8538402 15.7706636 15.941222 15.7706636 8.77843649"></polygon>
                    <polygon id="Path-30" points="18.1451231 10.0806239 18.1451231 17.2140481 21.819038 19.3014299 21.819038 12.1386445"></polygon>
                    <polygon id="Path-30" points="24.1934974 13.4408319 24.1934974 20.5742561 27.8674123 22.6616379 27.8674123 15.4988524"></polygon>
                    <polygon id="Path-30" points="30.2418718 16.8010399 30.2418718 23.9344641 33.9157867 26.0218459 33.9157867 18.8590604"></polygon>
                </g>
                <g id="Group-22" transform="translate(9.000000, 51.000000)" fill="#75C8DC">
                    <polygon id="Path-30" points="0 0 0 7.1334242 3.67391489 9.22080601 3.67391489 2.05802054"></polygon>
                    <polygon id="Path-30" points="6.04837436 3.36020798 6.04837436 10.4936322 9.72228926 12.581014 9.72228926 5.41822851"></polygon>
                    <polygon id="Path-30" points="12.0967487 6.72041596 12.0967487 13.8538402 15.7706636 15.941222 15.7706636 8.77843649"></polygon>
                    <polygon id="Path-30" points="18.1451231 10.0806239 18.1451231 17.2140481 21.819038 19.3014299 21.819038 12.1386445"></polygon>
                    <polygon id="Path-30" points="24.1934974 13.4408319 24.1934974 20.5742561 27.8674123 22.6616379 27.8674123 15.4988524"></polygon>
                    <polygon id="Path-30" points="30.2418718 16.8010399 30.2418718 23.9344641 33.9157867 26.0218459 33.9157867 18.8590604"></polygon>
                </g>
            </g>
            <g id="Group-34" transform="translate(141.000000, 67.000000)">
                <g id="Group-23" transform="translate(84.000000, 30.500000) scale(-1, 1) translate(-84.000000, -30.500000) translate(55.000000, 0.000000)">
                    <g id="Group-21">
                        <polygon id="Path-28" fill="#F87373" points="10.9001621 3.33867556 20.3081891 0.587336398 57.0179663 22.2849706 35.7492505 33.2583932"></polygon>
                        <polygon id="Path-28" fill="#D15D5D" points="0.573560918 13.3678516 10.6039892 2.97612996 46.556115 23.0407435 35.3597801 34.045474"></polygon>
                        <polygon id="Path-24" fill="#F7E5C6" points="0 13.4649061 0 39.5080782 35.6947747 60.0185165 35.6947747 33.8551219"></polygon>
                        <polygon id="Path-29" fill="#F7EEDF" points="57.8682892 21.1591381 35.2652302 33.8970745 35.2652302 59.692288 57.8682892 46.7358224"></polygon>
                    </g>
                </g>
                <g id="Group-23" transform="translate(63.000000, 42.500000) scale(-1, 1) translate(-63.000000, -42.500000) translate(34.000000, 12.000000)">
                    <g id="Group-21">
                        <polygon id="Path-28" fill="#F87373" points="10.9001621 3.33867556 20.3081891 0.587336398 57.0179663 22.2849706 35.7492505 33.2583932"></polygon>
                        <polygon id="Path-28" fill="#D15D5D" points="0.573560918 13.3678516 10.6039892 2.97612996 46.556115 23.0407435 35.3597801 34.045474"></polygon>
                        <polygon id="Path-24" fill="#F7E5C6" points="0 13.4649061 0 39.5080782 35.6947747 60.0185165 35.6947747 33.8551219"></polygon>
                        <polygon id="Path-29" fill="#F7EEDF" points="57.8682892 21.1591381 35.2652302 33.8970745 35.2652302 59.692288 57.8682892 46.7358224"></polygon>
                    </g>
                </g>
                <g id="Group-23" transform="translate(29.000000, 62.500000) scale(-1, 1) translate(-29.000000, -62.500000) translate(0.000000, 32.000000)">
                    <g id="Group-21">
                        <polygon id="Path-28" fill="#F87373" points="10.9001621 3.33867556 20.3081891 0.587336398 57.0179663 22.2849706 35.7492505 33.2583932"></polygon>
                        <polygon id="Path-28" fill="#D15D5D" points="0.573560918 13.3678516 10.6039892 2.97612996 46.556115 23.0407435 35.3597801 34.045474"></polygon>
                        <polygon id="Path-24" fill="#F7E5C6" points="0 13.4649061 0 39.5080782 35.6947747 60.0185165 35.6947747 33.8551219"></polygon>
                        <polygon id="Path-29" fill="#F7EEDF" points="57.8682892 21.1591381 35.2652302 33.8970745 35.2652302 59.692288 57.8682892 46.7358224"></polygon>
                    </g>
                </g>
                <g id="Group-22" transform="translate(46.000000, 66.500000) scale(-1, 1) translate(-46.000000, -66.500000) translate(29.000000, 53.000000)" fill="#75C8DC">
                    <polygon id="Path-30" points="0 0 0 7.1334242 3.67391489 9.22080601 3.67391489 2.05802054"></polygon>
                    <polygon id="Path-30" points="6.04837436 3.36020798 6.04837436 10.4936322 9.72228926 12.581014 9.72228926 5.41822851"></polygon>
                    <polygon id="Path-30" points="12.0967487 6.72041596 12.0967487 13.8538402 15.7706636 15.941222 15.7706636 8.77843649"></polygon>
                    <polygon id="Path-30" points="18.1451231 10.0806239 18.1451231 17.2140481 21.819038 19.3014299 21.819038 12.1386445"></polygon>
                    <polygon id="Path-30" points="24.1934974 13.4408319 24.1934974 20.5742561 27.8674123 22.6616379 27.8674123 15.4988524"></polygon>
                    <polygon id="Path-30" points="30.2418718 16.8010399 30.2418718 23.9344641 33.9157867 26.0218459 33.9157867 18.8590604"></polygon>
                </g>
                <g id="Group-22" transform="translate(87.000000, 42.500000) scale(-1, 1) translate(-87.000000, -42.500000) translate(70.000000, 29.000000)" fill="#75C8DC">
                    <polygon id="Path-30" points="0 0 0 7.1334242 3.67391489 9.22080601 3.67391489 2.05802054"></polygon>
                    <polygon id="Path-30" points="6.04837436 3.36020798 6.04837436 10.4936322 9.72228926 12.581014 9.72228926 5.41822851"></polygon>
                    <polygon id="Path-30" points="12.0967487 6.72041596 12.0967487 13.8538402 15.7706636 15.941222 15.7706636 8.77843649"></polygon>
                    <polygon id="Path-30" points="18.1451231 10.0806239 18.1451231 17.2140481 21.819038 19.3014299 21.819038 12.1386445"></polygon>
                    <polygon id="Path-30" points="24.1934974 13.4408319 24.1934974 20.5742561 27.8674123 22.6616379 27.8674123 15.4988524"></polygon>
                    <polygon id="Path-30" points="30.2418718 16.8010399 30.2418718 23.9344641 33.9157867 26.0218459 33.9157867 18.8590604"></polygon>
                </g>
            </g>
            <g id="Group-17" transform="translate(19.000000, 25.000000)">
                <polygon id="Path-22" fill="#F7EEDF" transform="translate(46.842742, 76.501667) rotate(-120.000000) translate(-46.842742, -76.501667) " points="22.1203143 49.4909307 0.115622348 62.2332933 71.6131387 103.512404 93.5698609 90.7423457"></polygon>
                <polygon id="Path-22" fill="#F87373" transform="translate(55.990843, 21.260730) rotate(-60.000000) translate(-55.990843, -21.260730) " points="39.622184 8.53359229 39.6351725 33.9878687 72.3595023 15.094468"></polygon>
                <polygon id="Path-22" fill="#D15D5D" transform="translate(61.096974, 21.260730) scale(-1, 1) rotate(-60.000000) translate(-61.096974, -21.260730) " points="44.7283152 8.53359229 44.7413038 33.9878687 77.4656336 15.094468"></polygon>
                <polygon id="Path-22" fill="#F7E5C6" transform="translate(68.542399, 76.396066) rotate(-240.000000) translate(-68.542399, -76.396066) " points="93.0880838 49.4502939 22.0270029 90.3840897 43.6846127 103.341838 115.057795 62.1345123"></polygon>
                <polygon id="Path-32" fill="#75C8DC" points="42.8999968 44.8025034 42.8999968 54.7896549 48.831002 58.5889081 48.831002 48.2573124"></polygon>
            </g>
            <g id="Group-17" transform="translate(19.000000, 25.000000)">
                <polygon id="Path-22" fill="#F7EEDF" transform="translate(46.842742, 76.501667) rotate(-120.000000) translate(-46.842742, -76.501667) " points="22.1203143 49.4909307 0.115622348 62.2332933 71.6131387 103.512404 93.5698609 90.7423457"></polygon>
                <polygon id="Path-22" fill="#F87373" transform="translate(55.990843, 21.260730) rotate(-60.000000) translate(-55.990843, -21.260730) " points="39.622184 8.53359229 39.6351725 33.9878687 72.3595023 15.094468"></polygon>
                <polygon id="Path-22" fill="#D15D5D" transform="translate(61.096974, 21.260730) scale(-1, 1) rotate(-60.000000) translate(-61.096974, -21.260730) " points="44.7283152 8.53359229 44.7413038 33.9878687 77.4656336 15.094468"></polygon>
                <polygon id="Path-22" fill="#F7E5C6" transform="translate(68.542399, 76.396066) rotate(-240.000000) translate(-68.542399, -76.396066) " points="93.0880838 49.4502939 22.0270029 90.3840897 43.6846127 103.341838 115.057795 62.1345123"></polygon>
                <polygon id="Path-32" fill="#75C8DC" points="42.8999968 44.8025034 42.8999968 54.7896549 48.831002 58.5889081 48.831002 48.2573124"></polygon>
            </g>
            <g id="Group-23" transform="translate(74.000000, 86.000000)">
                <g id="Group-21">
                    <polygon id="Path-28" fill="#D15D5D" points="17 5.20703125 31.6728516 0.916015625 88.9257812 34.7558594 55.7548828 51.8701172"></polygon>
                    <polygon id="Path-28" fill="#F87373" points="0.89453125 20.8486328 16.5380859 4.64160156 72.609375 35.9345703 55.1474609 53.0976562"></polygon>
                    <polygon id="Path-24" fill="#F7EEDF" points="0 21 0 61.6171875 55.6699219 93.6054687 55.6699219 52.8007812"></polygon>
                    <polygon id="Path-29" fill="#F7E5C6" points="90.2519531 33 55 52.8662109 55 93.0966797 90.2519531 72.8896484"></polygon>
                </g>
                <g id="Group-22" transform="translate(9.000000, 36.000000)" fill="#75C8DC">
                    <polygon id="Path-30" points="0 0 0 7.1334242 3.67391489 9.22080601 3.67391489 2.05802054"></polygon>
                    <polygon id="Path-30" points="6.04837436 3.36020798 6.04837436 10.4936322 9.72228926 12.581014 9.72228926 5.41822851"></polygon>
                    <polygon id="Path-30" points="12.0967487 6.72041596 12.0967487 13.8538402 15.7706636 15.941222 15.7706636 8.77843649"></polygon>
                    <polygon id="Path-30" points="18.1451231 10.0806239 18.1451231 17.2140481 21.819038 19.3014299 21.819038 12.1386445"></polygon>
                    <polygon id="Path-30" points="24.1934974 13.4408319 24.1934974 20.5742561 27.8674123 22.6616379 27.8674123 15.4988524"></polygon>
                    <polygon id="Path-30" points="30.2418718 16.8010399 30.2418718 23.9344641 33.9157867 26.0218459 33.9157867 18.8590604"></polygon>
                </g>
                <g id="Group-22" transform="translate(9.000000, 51.000000)" fill="#75C8DC">
                    <polygon id="Path-30" points="0 0 0 7.1334242 3.67391489 9.22080601 3.67391489 2.05802054"></polygon>
                    <polygon id="Path-30" points="6.04837436 3.36020798 6.04837436 10.4936322 9.72228926 12.581014 9.72228926 5.41822851"></polygon>
                    <polygon id="Path-30" points="12.0967487 6.72041596 12.0967487 13.8538402 15.7706636 15.941222 15.7706636 8.77843649"></polygon>
                    <polygon id="Path-30" points="18.1451231 10.0806239 18.1451231 17.2140481 21.819038 19.3014299 21.819038 12.1386445"></polygon>
                    <polygon id="Path-30" points="24.1934974 13.4408319 24.1934974 20.5742561 27.8674123 22.6616379 27.8674123 15.4988524"></polygon>
                    <polygon id="Path-30" points="30.2418718 16.8010399 30.2418718 23.9344641 33.9157867 26.0218459 33.9157867 18.8590604"></polygon>
                </g>
                <g id="Group-22" transform="translate(68.000000, 73.000000) scale(-1, 1) translate(-68.000000, -73.000000) translate(63.000000, 66.000000)" fill="#75C8DC">
                    <polygon id="Path-30" points="0.193497442 0.440831912 0.193497442 7.57425611 3.86741234 9.66163792 3.86741234 2.49885245"></polygon>
                    <polygon id="Path-30" points="6.2418718 3.80103989 6.2418718 10.9344641 9.9157867 13.0218459 9.9157867 5.85906043"></polygon>
                </g>
                <g id="Group-22" transform="translate(82.000000, 65.000000) scale(-1, 1) translate(-82.000000, -65.000000) translate(77.000000, 58.000000)" fill="#75C8DC">
                    <polygon id="Path-30" points="0.193497442 0.440831912 0.193497442 7.57425611 3.86741234 9.66163792 3.86741234 2.49885245"></polygon>
                    <polygon id="Path-30" points="6.2418718 3.80103989 6.2418718 10.9344641 9.9157867 13.0218459 9.9157867 5.85906043"></polygon>
                </g>
                <g id="Group-22" transform="translate(68.000000, 60.000000) scale(-1, 1) translate(-68.000000, -60.000000) translate(63.000000, 53.000000)" fill="#75C8DC">
                    <polygon id="Path-30" points="0.193497442 0.440831912 0.193497442 7.57425611 3.86741234 9.66163792 3.86741234 2.49885245"></polygon>
                    <polygon id="Path-30" points="6.2418718 3.80103989 6.2418718 10.9344641 9.9157867 13.0218459 9.9157867 5.85906043"></polygon>
                </g>
                <g id="Group-22" transform="translate(82.000000, 52.000000) scale(-1, 1) translate(-82.000000, -52.000000) translate(77.000000, 45.000000)" fill="#75C8DC">
                    <polygon id="Path-30" points="0.193497442 0.440831912 0.193497442 7.57425611 3.86741234 9.66163792 3.86741234 2.49885245"></polygon>
                    <polygon id="Path-30" points="6.2418718 3.80103989 6.2418718 10.9344641 9.9157867 13.0218459 9.9157867 5.85906043"></polygon>
                </g>
            </g>
        </g>
    </g>
</svg>