<?xml version="1.0" encoding="UTF-8"?>
<svg width="189px" height="150px" viewBox="0 0 189 150" version="1.1" xmlns="http://www.w3.org/2000/svg" xmlns:xlink="http://www.w3.org/1999/xlink">
    <!-- Generator: Sketch 45.2 (43514) - http://www.bohemiancoding.com/sketch -->
    <title>Group 28</title>
    <desc>Created with Sketch.</desc>
    <defs></defs>
    <g id="Page-1" stroke="none" stroke-width="1" fill="none" fill-rule="evenodd">
        <g id="Group-28">
            <g id="Group-23" transform="translate(11.000000, 0.000000)">
                <g id="Group-21">
                    <polygon id="Path-28" fill="#AAAAAA" points="0 20.1845703 35.7363281 0 91.1806641 32.3427734 56.1474609 52.0976562"></polygon>
                    <polygon id="Path-28" fill="#D8D8D8" points="0 26.1845703 35.7363281 6 91.1806641 38.3427734 56.1474609 58.0976562"></polygon>
                    <polygon id="Path-24" fill="#AF5E5E" points="0 20 0 60.6171875 55.6699219 92.6054687 55.6699219 51.8007812"></polygon>
                    <polygon id="Path-29" stroke="#979797" points="90.2519531 32 55 51.8662109 55 92.0966797 90.2519531 71.8896484"></polygon>
                </g>
                <g id="Group-22" transform="translate(4.000000, 27.000000)" fill="#75C8DC">
                    <polygon id="Path-30" points="0 0 0 10.6145576 5.46679688 13.7205882 5.46679688 3.06234101"></polygon>
                    <polygon id="Path-30" points="9 5 9 15.6145576 14.4667969 18.7205882 14.4667969 8.06234101"></polygon>
                    <polygon id="Path-30" points="18 10 18 20.6145576 23.4667969 23.7205882 23.4667969 13.062341"></polygon>
                    <polygon id="Path-30" points="27 15 27 25.6145576 32.4667969 28.7205882 32.4667969 18.062341"></polygon>
                    <polygon id="Path-30" points="36 20 36 30.6145576 41.4667969 33.7205882 41.4667969 23.062341"></polygon>
                    <polygon id="Path-30" points="45 25 45 35.6145576 50.4667969 38.7205882 50.4667969 28.062341"></polygon>
                </g>
                <g id="Group-22" transform="translate(4.000000, 43.000000)" fill="#75C8DC">
                    <polygon id="Path-30" points="0 0 0 10.6145576 5.46679688 13.7205882 5.46679688 3.06234101"></polygon>
                    <polygon id="Path-30" points="9 5 9 15.6145576 14.4667969 18.7205882 14.4667969 8.06234101"></polygon>
                    <polygon id="Path-30" points="18 10 18 20.6145576 23.4667969 23.7205882 23.4667969 13.062341"></polygon>
                    <polygon id="Path-30" points="27 15 27 25.6145576 32.4667969 28.7205882 32.4667969 18.062341"></polygon>
                    <polygon id="Path-30" points="36 20 36 30.6145576 41.4667969 33.7205882 41.4667969 23.062341"></polygon>
                    <polygon id="Path-30" points="45 25 45 35.6145576 50.4667969 38.7205882 50.4667969 28.062341"></polygon>
                </g>
            </g>
            <g id="Group-27" transform="translate(65.000000, 11.000000)">
                <g id="Group-26">
                    <polyline id="Path-26" fill="#AAAAAA" points="32.1191406 38.1865234 68.0117187 19.6552734 34.1191406 0 0 19.0932617"></polyline>
                    <polyline id="Path-26" fill="#D8D8D8" points="32.1191406 44.1865234 68.0117187 25.6552734 34.1191406 6 0 25.0932617"></polyline>
                    <polygon id="Path-24" fill="#AF5E5E" points="0 20 0 80.4658203 32.4169922 98.59375 32.4169922 37.9404297"></polygon>
                    <polygon id="Path-27" fill="#AF5E5E" points="32 38.265625 66.8740234 20 66.8740234 79.7607422 32 98.8828125"></polygon>
                </g>
                <polygon id="Path-30" fill="#FFD07E" points="9 72 9 85.7916447 14.4667969 88.8976753 14.4667969 75.062341"></polygon>
                <polygon id="Path-30" fill="#FFD07E" points="15 75.7205882 15 89.5122329 20.4667969 92.6182636 20.4667969 78.7829292"></polygon>
                <g id="Group-25" transform="translate(11.000000, 32.000000)">
                    <polygon id="Path-30" fill="#FFFFFF" points="0 0 0 10.6145576 9.46679688 15.7205882 9.46679688 5.06234101"></polygon>
                    <path d="M4.5,3.5 L4.5,8.5" id="Line-2" stroke="#979797" stroke-linecap="square"></path>
                    <path d="M4.5,8.5 L7.5,12.5" id="Line-3" stroke="#979797" stroke-linecap="square"></path>
                </g>
                <g id="Group-24" transform="translate(4.000000, 47.000000)" fill="#75C8DC">
                    <polygon id="Path-30" points="0 0 0 10.6145576 5.46679688 13.7205882 5.46679688 3.06234101"></polygon>
                    <polygon id="Path-30" points="9 5 9 15.6145576 14.4667969 18.7205882 14.4667969 8.06234101"></polygon>
                    <polygon id="Path-30" points="18 10 18 20.6145576 23.4667969 23.7205882 23.4667969 13.062341"></polygon>
                </g>
            </g>
            <g id="Group-13" transform="translate(0.000000, 52.000000)" fill="#43A360">
                <polygon id="Path-18" points="0.630859375 1.07317399 0.630859375 12.1974172 30.5292852 29.3052765 30.5292852 17.8595274"></polygon>
                <polygon id="Path-19" points="29.33645 18.1146004 33.3967018 15.5903981 33.3967018 27.4667103 29.33645 29.4027143"></polygon>
                <polygon id="Path-20" points="29.9833151 18.2003049 0.971974443 2.3561887 5.13476562 0.243164062 33.2064174 16.2403241"></polygon>
            </g>
            <g id="Group-13" transform="translate(34.000000, 71.000000)" fill="#43A360">
                <polygon id="Path-18" points="0.630859375 1.07317399 0.630859375 12.1974172 30.5292852 29.3052765 30.5292852 17.8595274"></polygon>
                <polygon id="Path-19" points="29.33645 18.1146004 33.3967018 15.5903981 33.3967018 27.4667103 29.33645 29.4027143"></polygon>
                <polygon id="Path-20" points="29.9833151 18.2003049 0.971974443 2.3561887 5.13476562 0.243164062 33.2064174 16.2403241"></polygon>
            </g>
            <g id="Group-23" transform="translate(97.000000, 49.000000)">
                <g id="Group-21">
                    <polygon id="Path-28" fill="#AAAAAA" points="0 20.1845703 35.7363281 0 91.1806641 32.3427734 56.1474609 52.0976562"></polygon>
                    <polygon id="Path-28" fill="#D8D8D8" points="0 26.1845703 35.7363281 6 91.1806641 38.3427734 56.1474609 58.0976562"></polygon>
                    <polygon id="Path-24" fill="#AF5E5E" points="0 20 0 60.6171875 55.6699219 92.6054687 55.6699219 51.8007812"></polygon>
                    <polygon id="Path-29" fill="#AF5E5E" points="90.2519531 32 55 51.8662109 55 92.0966797 90.2519531 71.8896484"></polygon>
                </g>
                <g id="Group-22" transform="translate(0.000000, 25.000000)" fill="#75C8DC">
                    <polygon id="Path-30" points="0 0 0 10.6145576 5.46679688 13.7205882 5.46679688 3.06234101"></polygon>
                    <polygon id="Path-30" points="9 5 9 15.6145576 14.4667969 18.7205882 14.4667969 8.06234101"></polygon>
                    <polygon id="Path-30" points="18 10 18 20.6145576 23.4667969 23.7205882 23.4667969 13.062341"></polygon>
                    <polygon id="Path-30" points="27 15 27 25.6145576 32.4667969 28.7205882 32.4667969 18.062341"></polygon>
                    <polygon id="Path-30" points="36 20 36 30.6145576 41.4667969 33.7205882 41.4667969 23.062341"></polygon>
                    <polygon id="Path-30" points="45 25 45 35.6145576 50.4667969 38.7205882 50.4667969 28.062341"></polygon>
                </g>
                <g id="Group-22" transform="translate(0.000000, 41.000000)" fill="#75C8DC">
                    <polygon id="Path-30" points="0 0 0 10.6145576 5.46679688 13.7205882 5.46679688 3.06234101"></polygon>
                    <polygon id="Path-30" points="9 5 9 15.6145576 14.4667969 18.7205882 14.4667969 8.06234101"></polygon>
                    <polygon id="Path-30" points="18 10 18 20.6145576 23.4667969 23.7205882 23.4667969 13.062341"></polygon>
                    <polygon id="Path-30" points="27 15 27 25.6145576 32.4667969 28.7205882 32.4667969 18.062341"></polygon>
                    <polygon id="Path-30" points="36 20 36 30.6145576 41.4667969 33.7205882 41.4667969 23.062341"></polygon>
                    <polygon id="Path-30" points="45 25 45 35.6145576 50.4667969 38.7205882 50.4667969 28.062341"></polygon>
                </g>
            </g>
            <g id="Group-13" transform="translate(85.000000, 101.000000)" fill="#43A360">
                <polygon id="Path-18" points="0.630859375 1.07317399 0.630859375 12.1974172 30.5292852 29.3052765 30.5292852 17.8595274"></polygon>
                <polygon id="Path-19" points="29.33645 18.1146004 33.3967018 15.5903981 33.3967018 27.4667103 29.33645 29.4027143"></polygon>
                <polygon id="Path-20" points="29.9833151 18.2003049 0.971974443 2.3561887 5.13476562 0.243164062 33.2064174 16.2403241"></polygon>
            </g>
            <g id="Group-13" transform="translate(119.000000, 120.000000)" fill="#43A360">
                <polygon id="Path-18" points="0.630859375 1.07317399 0.630859375 12.1974172 30.5292852 29.3052765 30.5292852 17.8595274"></polygon>
                <polygon id="Path-19" points="29.33645 18.1146004 33.3967018 15.5903981 33.3967018 27.4667103 29.33645 29.4027143"></polygon>
                <polygon id="Path-20" points="29.9833151 18.2003049 0.971974443 2.3561887 5.13476562 0.243164062 33.2064174 16.2403241"></polygon>
            </g>
        </g>
    </g>
</svg>