<?xml version="1.0" encoding="UTF-8"?>
<svg width="254px" height="190px" viewBox="0 0 254 190" version="1.1" xmlns="http://www.w3.org/2000/svg" xmlns:xlink="http://www.w3.org/1999/xlink">
    <!-- Generator: Sketch 45.2 (43514) - http://www.bohemiancoding.com/sketch -->
    <title>Group 12</title>
    <desc>Created with Sketch.</desc>
    <defs>
        <polygon id="path-1" points="0 82.7109375 68.1015625 123.1875 85.4140625 112.623047 103.173828 123.1875 120.087891 112.623047 137.109375 123.1875 207.982422 83.7109375 190.316406 72.6132812 207.982422 62.4199219 190.316406 52.4550781 207.982422 42.3964844 137.109375 2 120.087891 12.4863281 103.991211 2 85.4140625 12.4863281 68.1015625 2 0 43.3964844 15.1640625 53.4550781 0 62.59375 16.1640625 72.3496094"></polygon>
        <polygon id="path-2" points="1.78592035e-14 80.7109375 68.1015625 121.1875 85.4140625 110.623047 103.173828 121.1875 105.201172 121.1875 105.201172 0 85.4140625 10.4863281 68.1015625 0 1.78592035e-14 30.3769531 0 39.4072266 12.6855469 47.6025391 0 50.6025391 1.78592035e-14 59.1640625 12.6855469 66.9619141 0 70.0263672"></polygon>
        <polygon id="path-3" points="103 80.7109375 173.101562 121.1875 189.414063 110.623047 206.173828 121.1875 206.991211 0 188.414063 10.4863281 171.101563 0 103 30.3769531 103 39.4072266 115.685547 46.6025391 103 50.6025391 103 59.1640625 115.685547 65.9619141 103 70.0263672"></polygon>
    </defs>
    <g id="Page-1" stroke="none" stroke-width="1" fill="none" fill-rule="evenodd">
        <g id="Group-12" transform="translate(2.000000, 2.000000)">
            <path d="M91,138.232339 L91,155.774443 L91,155.774443 C91,157.543386 91.9346869,159.180671 93.4579511,160.080019 L121.532323,176.655367 L121.532323,176.655367 C123.054514,177.554082 124.938119,177.582257 126.486509,176.72947 L156.7637,160.054106 L156.7637,160.054106 C158.36002,159.174923 159.351562,157.496843 159.351562,155.674427 L159.351562,138.232339 L159.351562,138.232339 C159.351562,135.470916 157.112986,133.232339 154.351562,133.232339" id="Path-14" fill="#9C9C9C"></path>
            <g id="Group-11" transform="translate(148.000000, 118.232339)" fill="#B5B5B5">
                <polygon id="Path-15" points="38.0488281 34.6328125 0 42.2597656 0 66.1796875 6.34375 69.2050781 9.13964844 67.1796875 9.13964844 45.9584961 38.0488281 39.4179688 42.2597656 37 42.2597656 32"></polygon>
                <polygon id="Path-15" points="57.0488281 22.6328125 19 30.2597656 19 54.1796875 25.34375 57.2050781 28.1396484 55.1796875 28.1396484 33.9584961 57.0488281 27.4179688 61.2597656 25 61.2597656 20"></polygon>
                <polygon id="Path-15" points="93.0488281 2.6328125 55 10.2597656 55 34.1796875 61.34375 37.2050781 64.1396484 35.1796875 64.1396484 13.9584961 93.0488281 7.41796875 97.2597656 5 97.2597656 0"></polygon>
                <polygon id="Path-15" points="76.0488281 11.6328125 38 19.2597656 38 43.1796875 44.34375 46.2050781 47.1396484 44.1796875 47.1396484 22.9584961 76.0488281 16.4179688 80.2597656 14 80.2597656 9"></polygon>
            </g>
            <g id="Group-11" transform="translate(49.000000, 152.232339) scale(-1, 1) translate(-49.000000, -152.232339) translate(0.000000, 117.232339)" fill="#B5B5B5">
                <polygon id="Path-15" points="38.0488281 34.6328125 0 42.2597656 0 66.1796875 6.34375 69.2050781 9.13964844 67.1796875 9.13964844 45.9584961 38.0488281 39.4179688 42.2597656 37 42.2597656 32"></polygon>
                <polygon id="Path-15" points="57.0488281 22.6328125 19 30.2597656 19 54.1796875 25.34375 57.2050781 28.1396484 55.1796875 28.1396484 33.9584961 57.0488281 27.4179688 61.2597656 25 61.2597656 20"></polygon>
                <polygon id="Path-15" points="93.0488281 2.6328125 55 10.2597656 55 34.1796875 61.34375 37.2050781 64.1396484 35.1796875 64.1396484 13.9584961 93.0488281 7.41796875 97.2597656 5 97.2597656 0"></polygon>
                <polygon id="Path-15" points="76.0488281 11.6328125 38 19.2597656 38 43.1796875 44.34375 46.2050781 47.1396484 44.1796875 47.1396484 22.9584961 76.0488281 16.4179688 80.2597656 14 80.2597656 9"></polygon>
            </g>
            <g id="Group-8" transform="translate(36.000000, 60.232339)">
                <polygon id="Path-10" stroke="#D8D8D8" stroke-width="4" fill="#D8D8D8" points="0 44.515625 18.1894531 54.2236328 0 62.3320312 71.1972656 102.447266 87.7265625 92.1074219 104.945312 102.447266 174.882812 62.3320312 157.910156 53.2236328 174.882812 44.515625 104.945312 4 87.7265625 14.5039062 71.1972656 4"></polygon>
                <polygon id="Path-10" fill="#72A6B3" points="2.37384995e-13 61.3320312 71.1972656 101.447266 87.7265625 91.1074219 87.7265625 10.5039062 71.1972656 0 3.41060513e-13 32.4960938 2.27373675e-13 41.9550781 17.8730469 50.7236328 2.27373675e-13 50.7236328"></polygon>
                <polygon id="Path-10" fill="#72A6B3" transform="translate(130.863281, 50.723633) scale(-1, 1) translate(-130.863281, -50.723633) " points="87 61.3320312 158.197266 101.447266 174.726562 91.1074219 174.726562 10.5039062 158.197266 0 87 32.4960938 87 41.9550781 104.873047 50.7236328 87 50.7236328"></polygon>
            </g>
            <g id="Group-9" transform="translate(22.000000, 35.232339)">
                <g id="Path-8">
                    <use fill="#D8D8D8" xlink:href="#path-1"></use>
                    <use stroke="#D8D8D8" stroke-width="4" fill-opacity="0.4" fill="#707070" xlink:href="#path-1"></use>
                </g>
                <g id="Path-8">
                    <use fill="#75C8DC" xlink:href="#path-2"></use>
                    <use fill-opacity="0.4" fill="#707070" xlink:href="#path-2"></use>
                </g>
                <g id="Path-8" transform="translate(154.995605, 60.593750) scale(-1, 1) translate(-154.995605, -60.593750) ">
                    <use fill="#75C8DC" xlink:href="#path-3"></use>
                    <use fill-opacity="0.4" fill="#707070" xlink:href="#path-3"></use>
                </g>
            </g>
            <g id="Group-10" transform="translate(3.000000, 3.232339)">
                <path d="M17.4335938,62.8613281 L0,52.7910156 L70.7978516,12 L87.2734375,21.7099609 L105.476563,12 L122.392578,21.7099609 L140.103516,12 L155.865234,21.7099609 L175.25293,12 L244.144531,51.7802734 L226.025391,62.1767578 L243.125,72.1201172 L226.025391,82.03125 L243.125,92.3144531 L226.025391,102.439453 L243.125,111.932617 L172.775391,152.819336 L155.865234,143.044922 C144.03125,149.561198 138.114258,152.819336 138.114258,152.819336 L121.455078,142.790039 L103.555664,152.819336 L86.0908203,142.790039 L69.3173828,152.819336 L0,112.941406 L17.4335938,102.439453 L0,92.3144531 L17.4335938,82.409668 L0,72.4613342 L17.4335938,62.8613281 Z" id="Path-11" stroke="#EBEBEB" stroke-width="4" fill="#D8D8D8"></path>
                <polygon id="Path-11" fill="#75C8DC" points="0.598632812 51.7910156 0.598632812 41.5488281 71.3964844 11 87.8720703 20.7099609 106.075195 11 122.991211 20.7099609 122.053711 141.790039 104.154297 151.819336 86.6894531 141.790039 69.9160156 151.819336 0.598632812 111.941406 0.598632812 100.820312 18.2363281 100.820312 0.598632812 91.3144531 0.598632812 80.409668 17.2363281 79.7089844 0.598632812 71.0078125 0.598632812 61.0097656 17.2363281 61.0097656"></polygon>
                <polygon id="Path-11" fill="#75C8DC" transform="translate(182.196289, 81.409668) scale(-1, 1) translate(-182.196289, -81.409668) " points="121 51.7910156 121 41.5488281 191.797852 11 208.273438 20.7099609 226.476563 11 243.392578 20.7099609 242.455078 141.790039 224.555664 151.819336 207.09082 141.790039 190.317383 151.819336 121 111.941406 121 100.820312 138.637695 100.820312 121 91.3144531 121 80.409668 137.637695 79.7089844 121 71.0078125 121 61.0097656 137.637695 61.0097656"></polygon>
                <path d="M17.5136719,51 L0.080078125,40.9296875 L70.8779297,0.138671875 L87.3535156,9.84863281 L105.556641,0.138671875 L122.472656,9.84863281 L140.183594,0.138671875 L155.945312,9.84863281 L175.333008,0.138671875 L244.224609,39.9189453 L226.105469,50.3154297 L243.205078,60.2587891 L226.105469,70.1699219 L243.205078,80.453125 L226.105469,90.578125 L243.205078,100.071289 L172.855469,140.958008 L155.945312,131.183594 C144.111328,137.69987 138.194336,140.958008 138.194336,140.958008 L121.535156,130.928711 L103.635742,140.958008 L86.1708984,130.928711 L69.3974609,140.958008 L0.080078125,101.080078 L17.5136719,90.578125 L0.080078125,80.453125 L17.5136719,70.5483398 L0.080078125,60.6000061 L17.5136719,51 Z" id="Path-11" stroke="#EBEBEB" stroke-width="4" fill="#D8D8D8"></path>
            </g>
            <g id="Group-9" transform="translate(21.000000, 0.232339)">
                <polygon id="Path-8" fill="#75C8DC" points="1.78592035e-14 92.7109375 68.1015625 133.1875 85.4140625 122.623047 103.173828 133.1875 105.201172 133.1875 105.201172 12 85.4140625 22.4863281 68.1015625 12 1.78592035e-14 42.3769531 0 51.4072266 12.6855469 59.6025391 0 62.6025391 1.78592035e-14 71.1640625 12.6855469 78.9619141 0 82.0263672"></polygon>
                <polygon id="Path-8" fill="#75C8DC" transform="translate(154.995605, 72.593750) scale(-1, 1) translate(-154.995605, -72.593750) " points="103 92.7109375 173.101562 133.1875 189.414063 122.623047 206.173828 133.1875 206.991211 12 188.414063 22.4863281 171.101563 12 103 42.3769531 103 51.4072266 115.685547 58.6025391 103 62.6025391 103 71.1640625 115.685547 77.9619141 103 82.0263672"></polygon>
                <polygon id="Path-8" stroke="#EBEBEB" stroke-width="4" fill="#D8D8D8" points="0 81.6410479 68.1015625 122.11761 85.4140625 111.553157 103.173828 122.11761 120.087891 111.553157 137.109375 122.11761 207.982422 82.6410479 190.316406 71.5433917 207.982422 61.3500323 190.316406 51.3851885 207.982422 41.3265948 137.109375 0.930110409 120.087891 11.4164385 103.991211 0.930110409 85.4140625 11.4164385 68.1015625 0.930110409 0 42.3265948 15.1640625 52.3851885 0 61.5238604 16.1640625 71.2797198"></polygon>
            </g>
            <g id="Group-8" transform="translate(36.000000, 1.232339)">
                <polygon id="Path-10" fill="#75C8DC" points="2.37384995e-13 70.3320312 71.1972656 110.447266 87.7265625 100.107422 87.7265625 19.5039062 71.1972656 9 3.41060513e-13 41.4960938 2.27373675e-13 50.9550781 17.8730469 59.7236328 2.27373675e-13 59.7236328"></polygon>
                <polygon id="Path-10" fill="#75C8DC" transform="translate(130.863281, 59.723633) scale(-1, 1) translate(-130.863281, -59.723633) " points="87 70.3320312 158.197266 110.447266 174.726562 100.107422 174.726562 19.5039062 158.197266 9 87 41.4960938 87 50.9550781 104.873047 59.7236328 87 59.7236328"></polygon>
                <polygon id="Path-10" stroke="#EBEBEB" stroke-width="4" fill="#D8D8D8" points="0 41.4457354 18.1894531 51.1537432 0 59.2621417 71.1972656 99.377376 87.7265625 89.0375323 104.945312 99.377376 174.882812 59.2621417 157.910156 50.1537432 174.882812 41.4457354 104.945312 0.930110409 87.7265625 11.4340167 71.1972656 0.930110409"></polygon>
            </g>
            <path d="" id="Path-9" stroke="#979797"></path>
            <path d="" id="Path-12" stroke="#979797"></path>
            <path d="" id="Path-13" stroke="#979797"></path>
        </g>
    </g>
</svg>