<?xml version="1.0" encoding="utf-8"?>
<!-- Generator: Adobe Illustrator 22.1.0, SVG Export Plug-In . SVG Version: 6.00 Build 0)  -->
<svg version="1.1" id="Layer_1" xmlns="http://www.w3.org/2000/svg" xmlns:xlink="http://www.w3.org/1999/xlink" x="0px" y="0px"
	 viewBox="0 0 1000 1000" style="enable-background:new 0 0 1000 1000;" xml:space="preserve">
<style type="text/css">
	.st0{fill:#303030;stroke:#303030;stroke-miterlimit:10;}
	.st1{fill:#474747;stroke:#474747;stroke-miterlimit:10;}
	.st2{fill:#DBB79F;stroke:#DBB79F;stroke-miterlimit:10;}
	.st3{stroke:#000000;stroke-miterlimit:10;}
	.st4{fill:#816786;stroke:#816786;stroke-miterlimit:10;}
	.st5{fill:#AE572E;stroke:#AE572E;stroke-miterlimit:10;}
	.st6{fill:#E6B493;stroke:#E6B493;stroke-miterlimit:10;}
	.st7{fill:#404040;stroke:#404040;stroke-miterlimit:10;}
	.st8{fill:#314F61;stroke:#314F61;stroke-miterlimit:10;}
	.st9{fill:#568CAB;stroke:#568CAB;stroke-miterlimit:10;}
	.st10{fill:#4A443F;stroke:#4A443F;stroke-miterlimit:10;}
	.st11{fill:#A88A2F;stroke:#A88A2F;stroke-miterlimit:10;}
	.st12{fill:#804B2F;stroke:#804B2F;stroke-miterlimit:10;}
	.st13{fill:#276734;stroke:#276734;stroke-miterlimit:10;}
	.st14{fill:#423D36;stroke:#423D36;stroke-miterlimit:10;}
	.st15{fill:#DE2F14;}
	.st16{fill:#FF3617;}
	.st17{fill:#C92B12;}
	.st18{fill:#A66200;}
</style>
<g>
	<g>
		<path class="st0" d="M358.262,819.999c1.972,6.005-7.845,8.997-25.55,8.997c-15.334,0-29.517-8.421-25.727-18.326
			c6.581-0.089,22.581-1.086,31.91-1.684l0.044,0.51C338.939,809.495,356.312,813.994,358.262,819.999z"/>
		<path class="st1" d="M306.984,810.67c-1.861,0.022-2.969-0.022-2.969-0.177c-4.166-94.577-30.824-158.175-36.342-170.407
			c35.832,1.485,70.733,1.086,88.217-4.188c6.958,33.993-9.019,172.601-9.883,172.601c0,0-2.859,0.199-7.113,0.487
			C329.565,809.584,313.566,810.581,306.984,810.67z"/>
		<path d="M364.954,513.598c-3.767,6.182-23.755,7.268-30.891,6.227l-0.443,0.044c-0.798-7.423-1.551-14.913-2.238-22.27
			C344.567,504.934,355.669,510.053,364.954,513.598z"/>
		<path class="st2" d="M219.919,425.647c-22.78-7.002-41.084-18.57-51.543-29.339c14.648-29.76,25.417-65.814,36.497-88.838
			c1.219-2.57,2.659-5.274,5.23-6.471c2.238-1.064,4.853-0.753,7.313-0.421c29.694,3.878,59.875,4.033,89.613,0.443
			c0.842-0.089,1.618,0.421,1.861,1.241c8.487,28.874,26.924,58.9,47.51,84.051c-10.526,17.683-28.121,32.22-53.56,39.976
			c-2.26,0.709-4.587,1.352-6.958,1.928C268.36,434.954,242.012,432.45,219.919,425.647z"/>
		<path class="st1" d="M242.389,638.8l-0.089,1.352c-14.537,33.217-20.32,170.341-21.273,170.341h-5.739h-32.109h-8.155
			c-0.864,0-13.096-145.5-14.581-178.695C172.298,633.083,205.759,636.54,242.389,638.8z"/>
		<path class="st3" d="M377.607,279.238c-12.055-22.115-37.716-32.774-62.047-39.245c-23.866-6.36-46.668-14.226-71.044-7.579
			l-0.51-0.044c-24.088-3.125-49.349,3.745-68.54,18.658c-19.168,14.913-32.065,37.693-34.99,61.803
			c-3.967,32.907,9.861,66.169,5.23,98.987c-1.13,8.022-3.368,15.888-4.698,23.888c-0.399,2.305-0.709,4.631-0.909,6.98
			c-0.864,10.415,2.415,33.372,9.861,40.752c9.285-22.824,22.115-43.588,41.062-54.934l0.111,0.022
			c0.222-0.665,0.82-1.152,1.551-1.197l27.234-1.684c-22.78-7.002-41.084-18.57-51.543-29.339
			c14.647-29.76,25.417-65.814,36.497-88.838c1.219-2.57,2.659-5.274,5.23-6.471c2.238-1.064,4.853-0.753,7.313-0.421
			c29.694,3.878,59.875,4.033,89.613,0.443c0.842-0.089,1.618,0.421,1.861,1.241c8.487,28.874,26.924,58.9,47.51,84.051
			c-10.526,17.683-28.121,32.22-53.56,39.976l24.088,1.042c0.576,0.022,1.086,0.332,1.374,0.798l0.51-0.643l42.391,33.151
			c0.421,0.332,0.864,0.62,1.307,0.886c1.662-17.285,3.302-34.569,4.942-51.854c2.172-22.802,4.343-45.604,6.515-68.407
			C385.961,320.256,387.69,297.786,377.607,279.238z"/>
		<path class="st0" d="M215.288,810.67c5.23,10.326-9.639,19.323-25.772,19.323c-17.994,0-28.01-2.992-25.993-8.997
			c1.994-6.005,19.656-10.504,19.656-10.504h32.109V810.67z"/>
		<path class="st4" d="M440.009,415.941c-4.809-3.39-11.39-2.659-15.334,1.684l-37.671,41.66c-3.745,4.122-9.817,4.964-14.492,2.238
			c-0.443-0.266-0.886-0.554-1.307-0.886l-42.391-33.151l-0.51,0.643c-0.288-0.465-0.798-0.776-1.374-0.798l-24.088-1.042
			c-2.26,0.709-4.587,1.352-6.958,1.928c-27.522,6.737-53.87,4.232-75.963-2.571l-27.234,1.684c-0.731,0.044-1.33,0.532-1.551,1.197
			l-0.111-0.022c-18.946,11.346-31.777,32.109-41.062,54.934c-14.78,36.342-20.52,77.913-27.456,94.976
			c-2.593,6.36-1.108,15.888,3.28,21.162l2.881,3.457c2.438,2.947,6.958,2.859,9.285-0.155c8.155-10.57,26.968-47.156,34.214-65.327
			l-15.977,91.918c-0.177,0.975,0.51,1.906,1.507,2.017c0.709,0.089,1.64,0.177,2.748,0.31c11.855,1.285,45.316,4.742,81.946,7.002
			c8.332,0.51,16.841,0.953,25.284,1.285c35.832,1.485,70.733,1.086,88.217-4.188c1.706-0.51,3.257-1.064,4.609-1.684
			c0.842-0.377,1.219-1.33,0.909-2.194c-3.479-9.218-22.027-59.897-26.038-96.018c-0.598-5.318-1.174-10.703-1.751-16.132
			c-0.798-7.423-1.551-14.913-2.238-22.27c13.185,7.335,24.287,12.454,33.572,15.999c16.398,6.271,27.101,7.645,33.328,7.667
			c4.233,0.022,8.155-2.26,10.238-5.961c10.481-18.658,28.519-66.434,35.677-85.846c0.487-1.33,0.731-2.681,0.731-4.033
			C444.928,421.724,443.155,418.157,440.009,415.941z"/>
	</g>
	<g>
		<path class="st5" d="M878.737,392.54c-0.21-6.35-1.55-12.6-2.9-18.8c-3.16-14.52-6.57-29.34-14.57-41.85
			c-7.22-11.3-17.77-20.04-28.63-27.9c-3.75-2.71-7.67-5.39-12.16-6.49c-7.38-1.8-15.55,0.84-22.55-2.1
			c-8.64-3.62-12.93-14.73-22.07-16.85c-6.62-1.53-13.18,2.31-19.89,3.45c-7.85,1.33-15.95-1.09-23.84-0.01
			c-13.36,1.84-23.16,13-34.72,19.96c-14.68,8.83-34.82,12.97-40.9,28.99c-1.21,3.19-1.83,6.84-4.35,9.16
			c-2.89,2.66-7.44,2.73-10.47,5.22c-5.56,4.59-2.79,13.33-2.3,20.51c0.82,11.9-6.11,23.71-3.55,35.35
			c2.06,9.32,9.77,16.37,13.16,25.29c1.78,4.68,2.32,9.78,4.26,14.39c1.94,4.62,5.9,8.95,10.91,9.08c2.15,0.06,4.16-0.69,5.88-1.94
			c2.34-1.68,4.15-4.29,5.08-7.04c1.61-4.8,1.19-10.01,0.95-15.06c-1.13-23.52,1.99-47.22,9.17-69.64
			c15.37-8.72,31.9-15.39,49.02-19.78c15.67-4.03,32.94-5.99,47.52,1.04c4.03,1.94,7.9,4.57,12.35,5.04
			c3.44,0.36,6.87-0.62,10.32-0.83c10.23-0.6,19.49,5.56,27.88,11.46c2.52,1.78,5.13,3.64,6.66,6.31c2.45,4.25,1.7,9.52,2.25,14.4
			c0.99,8.81,6.34,16.54,8.32,25.19c3.42,14.99-3.17,32.57,2.66,45.9c0.76,1.79,1.76,3.49,3.04,5.11c3.03,3.82,8.66,6.59,12.72,3.87
			c2.93-1.97,3.7-5.87,4.22-9.36c1.61-10.84,3.22-21.68,4.83-32.52C877.997,405.61,878.967,399.09,878.737,392.54z"/>
		<path class="st6" d="M721.547,476.84c-22.59-6.84-40.82-18.18-51.5-28.84c2.34-1.68,4.15-4.29,5.08-7.04
			c1.61-4.8,1.19-10.01,0.95-15.06c-1.13-23.52,1.99-47.22,9.17-69.64c15.37-8.72,31.9-15.39,49.02-19.78
			c15.67-4.03,32.94-5.99,47.52,1.04c4.03,1.94,7.9,4.57,12.35,5.04c3.44,0.36,6.87-0.62,10.32-0.83
			c10.23-0.6,19.49,5.56,27.88,11.46c2.52,1.78,5.13,3.64,6.66,6.31c2.45,4.25,1.7,9.52,2.25,14.4c0.99,8.81,6.34,16.54,8.32,25.19
			c3.42,14.99-3.17,32.57,2.66,45.9c-10.74,14.13-26.64,25.62-48.19,32.26c-2.32,0.71-4.7,1.37-7.15,1.97
			C769.617,485.88,743.517,483.5,721.547,476.84z"/>
		<path class="st7" d="M831.017,813.06c4,7.45-21,9.94-29,9.94s-10-6.21-5.81-14.82l-0.09-0.6l16.64-2.49
			C812.757,805.09,827.017,805.6,831.017,813.06z"/>
		<path class="st7" d="M713.907,802.71c3.11,6.79,8.11,16.79-10.89,16.79s-32-3-21-11s15.43-7.82,15.43-7.82L713.907,802.71z"/>
		<path class="st8" d="M828.867,679.87c5.74,31.22,3.89,115.33,1.15,122.63l-17.26,2.59l-16.64,2.49l-6.1,0.92
			c0,0-6.3-85.19-23.16-126.8C791.267,683.32,814.437,683.4,828.867,679.87z"/>
		<path class="st8" d="M739.677,679.39c-13.22,22.44-19.35,124.11-19.35,124.11l-6.42-0.79l-16.46-2.03l-17.64-2.18
			c-6.24-10.42-1.78-94.96,2.5-126.29C696.217,674.17,717.297,677.1,739.677,679.39z"/>
		<path class="st9" d="M867.207,551.81c-9.19-33.31-27.22-64.75-40.19-72.31l-0.23-0.01c-0.14-0.71-0.74-1.27-1.51-1.31l-21.24-0.93
			c-2.32,0.71-4.7,1.37-7.15,1.97c-27.27,6.66-53.37,4.28-75.34-2.38l-21.34,1.34c-0.69,0.04-1.28,0.52-1.45,1.18
			c-64.57,44.18-70.91,124.17-66.46,128.14c4.49,4,22.42,17,28.4,8c5.66-8.53,17.3-49.48,24.57-57.94l-19.08,110.74
			c-0.16,0.93,0.48,1.8,1.41,1.9c2.66,0.3,7.8,1.03,14.71,2.01c13.91,1.96,34.99,4.89,57.37,7.18c8.98,0.91,18.16,1.72,27.18,2.31
			c24.41,1.62,47.58,1.7,62.01-1.83c2.71-0.65,5.11-1.44,7.15-2.37c0.78-0.35,0.88-63.13-2.86-97.11
			c-1.03-9.36-2.06-18.97-2.99-28.49l0.26-0.03c7.3,10.85,10.85,49.59,17.34,60.38c6.48,10.8,16.85,5.4,27.22,5.4
			C885.367,617.65,871.007,565.57,867.207,551.81z"/>
	</g>
	<g>
		<path class="st10" d="M661.717,840.5c17.92,18-31.61,16-64.27,14c-32.66-2-21.07-24-12.92-38l0.07-1.51l36.66,1.69
			C625.157,817.81,645.587,824.29,661.717,840.5z"/>
		<path class="st11" d="M621.257,816.68l-36.66-1.69l-10.58-0.49c0,0-35.22-174.14-50.5-218.58c38.49-2.38,75.47-5.91,93.39-7.63
			l0.11,1.21c6.94,15.23,33,197,22,228L621.257,816.68z"/>
		<path class="st12" d="M467.367,381.66c-21.25-5.97-38.87-16-50.33-25.95c13.55-29.96,18.3-63.88,13.29-96.39l2.34-0.66
			c38.37,5.54,77.48-8.79,115.92-3.75c13.26,1.74,26.26,5.76,39.6,6.16l-0.02,0.63c-1.3,24.52-2.55,49.55,3.98,73.22
			c1.17,4.24,2.59,8.42,4.25,12.5c-10.85,14.99-27.33,27.18-50,34.02c-2.12,0.64-4.29,1.24-6.51,1.78
			C513.777,389.6,488.737,387.68,467.367,381.66z"/>
		<path class="st11" d="M506.497,596.9c-14.92,55.91-29.98,219.1-29.98,219.1h-11.24h-34.23h-20.53c-9-57-7-209-2.88-222.93
			c2.68,1.31,4.98,2.35,5.38,2.43C432.317,599.28,468.897,598.83,506.497,596.9z"/>
		<path class="st10" d="M465.277,816.5c7.74,14,18.74,36-12.26,38s-78,4-61-14s39.03-24,39.03-24V816h34.23V816.5z"/>
		<path class="st13" d="M649.517,387c43-50,32-105,32-119s-6-23-19-23s-16,25-18,52c-1.96,26.46-38.48,74.03-59.71,87.23
			c-0.33-0.51-0.96-0.86-1.7-0.9l-36.71-1.89c-2.12,0.64-4.29,1.24-6.51,1.78c-26.11,6.38-51.15,4.46-72.52-1.56l-46.13,1.67
			c-1.18,0.05-2.06,0.87-1.99,1.85c-2.49,1.65-21.85,15.4-37.73,51.82c-17,39-56.91,90-51.46,101c5.46,11,13.46,19,23.46,6
			s61.1-79.74,61.1-79.74c-1.13,9.28-2.35,18.62-3.57,27.73c-4.84,36.13-8.85,86.28-13.03,95.51c-0.24,0.53,5.21,3.41,9.62,5.57
			c2.68,1.31,4.98,2.35,5.38,2.43c19.3,3.78,55.88,3.33,93.48,1.4c5.67-0.3,11.36-0.63,17.02-0.98c38.49-2.38,75.47-5.91,93.39-7.63
			c3.63-0.35,6.48-0.62,8.4-0.8c1.2-0.12,2.03-1.04,1.82-2.02l-29.83-142.23C597.297,443.24,606.517,437,649.517,387z"/>
		<path class="st14" d="M585.517,200.54c-26.5-8.12-54.53-9.45-82.22-10.73c-18.76-0.86-38.24-1.6-55.56,5.67
			c-17.86,7.49-31.55,23.03-39.69,40.6c-3.74,8.07-6.4,16.56-8.25,25.25c-2.2,10.24-3.29,20.76-3.75,31.22
			c-0.39,8.94-0.28,18.08,0.7,27.05c1.76,16.32,6.34,32.11,15.8,45.3c1.59-3.02,3.09-6.08,4.49-9.19
			c13.55-29.96,18.3-63.88,13.29-96.39l2.34-0.66c38.37,5.54,77.48-8.79,115.92-3.75c13.26,1.74,26.26,5.76,39.6,6.16l-0.02,0.63
			c-1.3,24.52-2.55,49.55,3.98,73.22c1.17,4.24,2.59,8.42,4.25,12.5c1.29,3.21,2.74,6.35,4.32,9.43l0.69,0.42
			c18.65-19.03,20.85-48.99,15.86-75.16c-1.57-8.26-4.1-16.99-10.64-22.27l-0.23-0.86c8.91-2.48,16.86-7.35,20.62-15.48l0.07-0.38
			C631.017,219.5,605.977,206.81,585.517,200.54z"/>
	</g>
	<g>
		<path class="st15" d="M732.406,183.488c0.531-0.42,1.476-0.66,3.028-0.543c9.267,0.715,10.183-3.614,10.131-5.555
			c0.441,0.409,1.066,0.584,1.662,0.38c5.79-1.989,13.909-15.167,18.81-24.902c2.563,13.358,15.912,37.066,39.735,45.537
			c1.163,0.406,1.54,1.862,0.716,2.785c-2.011,2.243-5.742,5.785-10.53,7.63c-1.336,0.519-1.535,2.318-0.336,3.083
			c2.987,1.897,7.588,4.618,11.647,6.095c1.618,0.593,1.517,2.907-0.148,3.32c-3.437,0.854-8.508,1.566-15.653,1.358
			c-15.956-0.455-44.06-16.303-58.3-34.531c-0.032-0.028-0.044-0.057-0.076-0.085C732.811,187.65,730.874,184.754,732.406,183.488z"
			/>
		<path class="st16" d="M745.565,177.39c-0.141-0.14-0.273-0.301-0.366-0.485c-0.839-1.603-2.787-4.789-6.561-8.523
			c-1.783-1.754-3.955-3.621-6.62-5.511c-10.471-7.424-21.13-15.096-32.631-12.228l12.109-61.199
			c16.155-5.997,41.077,6.796,48.42,22.581c7.524,16.193,12.195,24.935,10.15,31.643c-0.557,1.836-2.023,5.232-4.028,9.199
			c-4.902,9.734-13.02,22.913-18.81,24.902C746.631,177.974,746.007,177.799,745.565,177.39z"/>
		<path class="st17" d="M745.199,176.906c0.094,0.184,0.226,0.344,0.366,0.485c0.052,1.941-0.864,6.27-10.131,5.555
			c-1.553-0.117-2.498,0.123-3.028,0.543l-0.032-0.028l-0.01,0.001l5.947-14.764l0.328-0.315
			C742.412,172.117,744.36,175.303,745.199,176.906z"/>
		<path class="st18" d="M711.496,89.445l-12.109,61.199l-22.949,115.908c-0.454,2.289-2.68,3.786-4.98,3.333l-2.554-0.515
			c-2.299-0.453-3.786-2.68-3.332-4.97l35.357-178.642c0.454-2.289,2.68-3.786,4.98-3.333l2.564,0.514
			c2.289,0.454,3.786,2.68,3.332,4.97L711.496,89.445z"/>
	</g>
</g>
</svg>
